<svg xmlns="http://www.w3.org/2000/svg" width="47.5" height="36.625"><path fill="#F6F1E4" stroke="#000" stroke-miterlimit="10" d="M44.833 23.804l.213-8.135s-16.653 1.1-20.025-.66C21.649 13.25 24.6 2.917 24.6 2.917L2.045 18.086l21.5 15.832-.014-11.036 21.302.922z"/><path fill="none" stroke="#000" stroke-width=".75" stroke-miterlimit="10" d="M36.417 21.216s-2.192-.356-2.242.863c-.053 1.222.482.989 1.097 1.296.613.305 3.067-.337 2.783-.846-.285-.509-1.071-2.12-1.638-1.313zM42.268 18.785s-2.193-.356-2.242.863c-.053 1.221.621 1.291 1.233 1.602.613.305 2.931-.645 2.646-1.152-.287-.51-1.072-2.119-1.637-1.313zM21.249 26.999s-2.252-.366-2.303.887c-.054 1.251.638 1.327 1.268 1.642.629.313 3.007-.657 2.713-1.182-.291-.521-1.096-2.174-1.678-1.347zM21.104 10.288s-2.192-.357-2.242.862c-.051 1.22.622 1.294 1.235 1.601.614.304 2.929-.642 2.644-1.152-.285-.507-1.069-2.118-1.637-1.311zM22.555 19.314s-2.043-.332-2.092.807c-.049 1.135.579 1.205 1.151 1.488.572.287 2.732-.597 2.466-1.07-.264-.474-.994-1.976-1.525-1.225zM26.375 15.5s-1.993-.859-2.042.362c-.054 1.222.621 1.294 1.233 1.6.613.304 2.929-.641 2.644-1.15-.283-.509-.91-.624-1.835-.812zM31.695 18.314s-2.19-.357-2.241.863c-.052 1.222.621 1.294 1.235 1.601.613.305 2.929-.642 2.644-1.149-.284-.511-1.067-2.121-1.638-1.315zM17.673 22.352s-2.251-.366-2.301.886c-.055 1.255.638 1.327 1.267 1.644.629.313 3.006-.659 2.714-1.181-.292-.524-1.098-2.179-1.68-1.349zM17.946 15.064s-2.191-.357-2.242.863c-.051 1.222.621 1.293 1.234 1.6.615.305 2.93-.641 2.645-1.149-.284-.51-1.068-2.12-1.637-1.314zM36.688 16.063s-2.625-.438-2.233.241c-.052 1.221.621 1.292 1.235 1.601.613.305 2.929-.644 2.644-1.151-.286-.511-.521-.941-1.646-.691zM7.555 15.405s-2.255-.367-2.308.89c-.052 1.254.641 1.328 1.271 1.642.632.315 3.012-.659 2.72-1.183-.292-.523-1.1-2.178-1.683-1.349zM15.055 10.625s-2.062-.334-2.111.814c-.048 1.149.585 1.219 1.162 1.504.578.287 2.757-.604 2.489-1.084-.266-.475-1.006-1.991-1.54-1.234zM12.425 19.12s-2.114-.345-2.163.833c-.051 1.176.6 1.246 1.19 1.54.592.295 2.826-.618 2.551-1.11-.273-.488-1.029-2.041-1.578-1.263z"/></svg>