<svg xmlns="http://www.w3.org/2000/svg" width="47.5" height="36.625"><path fill="#F9F4E9" stroke="#000" stroke-miterlimit="10" d="M1.897 12.801l-.215 8.484s16.932-1.147 20.361.688.429 12.611.429 12.611l22.934-15.82L23.545 2.252l.014 11.51-21.662-.961z"/><path d="M32.658 16.365c-1.144.375-3.402 1.285-3.438 2.608-.022.956 1.085 1.849 3.391 2.707-1.1.458-3.357 1.574-3.333 2.995l.001.009c.029.992 1.135 1.845 3.386 2.596-.971.385-2.713 1.237-2.991 2.396l.678-.458c.435-.518 1.22-.975 1.929-1.305l1.214-.82-.115-.034c-3.03-.905-3.686-1.798-3.701-2.383v-.008c-.022-1.227 2.591-2.429 3.606-2.79l.584-.211-.588-.201c-3.053-1.048-3.669-1.928-3.66-2.476.03-1.146 2.715-2.113 3.746-2.39l.651-.177-.634-.233c-3.772-1.412-4.503-2.491-4.473-3.134.082-1.307 3.295-2.249 4.525-2.499l.912-.19-.903-.231c-3.218-.831-3.714-1.665-3.729-2.083a.02.02 0 01.001-.005c-.007-.331.267-.675.672-1.006l-.345-.268c-.437.384-.735.815-.727 1.281v.007c.028.879 1.082 1.622 3.228 2.266-1.381.374-3.942 1.251-4.033 2.696a1.28 1.28 0 00-.001.107c.02 1.069 1.38 2.132 4.147 3.234z"/><path d="M37.602 16.245c-.963.314-2.866 1.082-2.896 2.199-.018.8.917 1.553 2.857 2.277-.926.387-2.833 1.328-2.808 2.523v.007c.017.611.524 1.158 1.534 1.655l.335-.233c-1.214-.551-1.525-1.062-1.536-1.431l.001-.005c-.021-1.034 2.185-2.047 3.038-2.35l.493-.178-.497-.168c-2.568-.885-3.087-1.627-3.08-2.088.021-.963 2.283-1.779 3.155-2.014l.547-.144-.535-.201c-3.177-1.188-3.787-2.093-3.767-2.636.046-.72 1.219-1.309 2.314-1.689l-.349-.263c-1.079.4-2.245 1.035-2.297 1.926-.002.026-.002.057-.006.089.02.896 1.166 1.794 3.497 2.724zM42.373 19.241c-.924.386-2.828 1.326-2.805 2.522v.009c.01.349.188.676.52.987l.304-.195c-.355-.303-.483-.579-.488-.801l.001-.005c-.021-1.035 2.185-2.049 3.036-2.352l.492-.177-.495-.167c-2.568-.886-3.089-1.628-3.082-2.089.014-.532.713-1.015 1.48-1.384l-.319-.247c-.77.397-1.479.943-1.496 1.621-.018.799.914 1.553 2.852 2.278zM27.109 15.134c-.963.315-2.867 1.081-2.895 2.198-.019.801.913 1.553 2.852 2.278-.921.387-2.827 1.328-2.804 2.521l.002.01c.021.835.954 1.554 2.85 2.184-.891.356-2.568 1.17-2.564 2.28 0 .007.001.014-.002.02.015.833.953 1.579 2.854 2.271-.838.356-2.49 1.217-2.589 2.559-.031.456.126.919.457 1.386l.281-.189c-.293-.402-.43-.792-.403-1.166.11-1.52 2.801-2.414 2.831-2.422l.524-.172-.524-.176c-2.559-.853-3.096-1.615-3.098-2.111.001-.977 2.053-1.861 2.842-2.117l.556-.181-.563-.17c-2.555-.76-3.105-1.51-3.121-2.006 0 0 0-.002.003-.005-.022-1.035 2.186-2.048 3.036-2.352l.492-.178-.494-.167c-2.57-.885-3.092-1.627-3.082-2.089.023-.961 2.284-1.778 3.156-2.012l.547-.146-.535-.2c-3.178-1.188-3.791-2.094-3.768-2.636.07-1.102 2.777-1.898 3.813-2.109l.77-.155-.762-.2c-2.708-.697-3.132-1.401-3.141-1.755l.001-.002c-.019-.836 1.973-1.777 3.232-2.175l.438-.138-.418-.205c-3.022-1.458-3.576-2.528-3.512-3.166.006-.053.022-.104.036-.156l-.313-.133c-.024.081-.049.162-.058.247-.107 1.066.974 2.159 3.316 3.343-.953.347-3.083 1.251-3.061 2.388v.007c.021.74.911 1.367 2.719 1.907-1.163.313-3.319 1.055-3.394 2.275-.005.025-.005.057-.005.088.021.899 1.168 1.797 3.498 2.727zM7.092 16.439l.548-.144-.535-.201c-3.177-1.188-3.789-2.093-3.768-2.636.012-.183.101-.356.237-.521h-.407a1.154 1.154 0 00-.162.494c-.002.026-.002.057-.003.089.018.896 1.162 1.795 3.494 2.725-.965.314-2.867 1.082-2.897 2.199-.018.8.916 1.553 2.856 2.277-.319.134-.757.337-1.19.591h.769c.384-.188.742-.338.987-.425l.491-.178-.493-.168c-2.569-.885-3.089-1.627-3.083-2.088.022-.963 2.285-1.779 3.156-2.014zM22.397 16.07l.548-.146-.535-.201c-3.031-1.132-3.728-2.008-3.765-2.558l-.339-.007c.025.894 1.172 1.79 3.495 2.716-.964.314-2.867 1.082-2.896 2.197-.018.802.915 1.555 2.854 2.28-.438.184-1.098.496-1.668.898h.675a10.119 10.119 0 011.562-.734l.493-.177-.498-.167c-2.569-.887-3.09-1.628-3.08-2.089.022-.962 2.284-1.778 3.154-2.012zM23.106 10.848l.12-.024-.119-.031zM17.647 16.07l.548-.146-.535-.201c-3.031-1.132-3.728-2.008-3.765-2.558l-.339-.007c.025.894 1.172 1.79 3.495 2.716-.964.314-2.867 1.082-2.896 2.197-.018.802.915 1.555 2.854 2.28-.438.184-1.098.496-1.668.898h.675a10.119 10.119 0 011.562-.734l.493-.177-.498-.167c-2.569-.887-3.09-1.628-3.08-2.089.022-.962 2.284-1.778 3.154-2.012zM18.356 10.848l.12-.024-.119-.031zM8.295 14.167c.031-.5.521-.946 1.182-1.32l-.709-.037c-.491.373-.837.812-.87 1.324-.003.037-.003.073-.003.108.022 1.068 1.384 2.131 4.149 3.233-1.144.375-3.401 1.286-3.437 2.609-.009.354.14.701.446 1.04h.604c-.508-.408-.656-.757-.653-1.025.029-1.146 2.715-2.113 3.748-2.389l.65-.177-.634-.233c-3.772-1.411-4.501-2.489-4.473-3.133z"/></svg>